<?xml version="1.0" encoding="UTF-8"?>
<svg xmlns="http://www.w3.org/2000/svg" xmlns:xlink="http://www.w3.org/1999/xlink" width="24px" height="24px" viewBox="0 0 24 24" version="1.1">
<g id="surface1">
<path style="fill-rule:nonzero;fill:rgb(50.588238%,51.764709%,53.725493%);fill-opacity:1;stroke-width:0.00024;stroke-linecap:butt;stroke-linejoin:miter;stroke:rgb(50.588238%,51.764709%,53.725493%);stroke-opacity:1;stroke-miterlimit:4;" d="M 12 1.59375 C 2.730469 1.589844 -1.910156 12.796875 4.640625 19.351562 C 7.617188 22.328125 12.089844 23.21875 15.976562 21.609375 C 19.867188 20 22.402344 16.203125 22.402344 11.996094 C 22.402344 6.253906 17.746094 1.597656 12 1.59375 Z M 6.109375 6.78125 C 6.609375 4.183594 10.003906 3.488281 11.484375 5.679688 C 12.96875 7.871094 11.0625 10.761719 8.464844 10.261719 C 6.855469 9.953125 5.800781 8.394531 6.109375 6.78125 Z M 10.433594 15.769531 C 9.929688 18.367188 6.535156 19.058594 5.054688 16.867188 C 3.574219 14.675781 5.480469 11.785156 8.078125 12.289062 C 8.855469 12.4375 9.535156 12.886719 9.976562 13.542969 C 10.417969 14.195312 10.582031 14.996094 10.433594 15.769531 Z M 11.691406 13.367188 C 10.539062 13.144531 10.230469 11.640625 11.199219 10.980469 C 12.171875 10.320312 13.457031 11.160156 13.242188 12.3125 C 13.175781 12.660156 12.976562 12.964844 12.6875 13.160156 C 12.394531 13.359375 12.039062 13.433594 11.691406 13.367188 Z M 17.890625 17.203125 C 17.390625 19.800781 13.996094 20.496094 12.515625 18.308594 C 11.03125 16.117188 12.933594 13.226562 15.535156 13.722656 C 16.308594 13.871094 16.992188 14.324219 17.433594 14.976562 C 17.875 15.628906 18.039062 16.429688 17.890625 17.203125 Z M 15.921875 11.703125 C 13.324219 11.199219 12.628906 7.804688 14.820312 6.320312 C 17.011719 4.839844 19.902344 6.742188 19.402344 9.34375 C 19.253906 10.117188 18.804688 10.800781 18.152344 11.242188 C 17.5 11.6875 16.699219 11.851562 15.921875 11.703125 Z M 13.589844 23.265625 L 15.855469 23.875 C 17.835938 24.398438 19.871094 23.21875 20.398438 21.238281 L 21.035156 18.835938 C 19.234375 21.234375 16.558594 22.828125 13.589844 23.265625 Z M 21.234375 3.597656 L 18.871094 2.96875 C 21.28125 4.824219 22.851562 7.570312 23.222656 10.589844 L 23.875 8.132812 C 24.390625 6.152344 23.210938 4.125 21.230469 3.601562 Z M 0.671875 13.808594 L 0.132812 15.847656 C -0.394531 17.832031 0.785156 19.863281 2.765625 20.390625 L 4.875 20.953125 C 2.625 19.183594 1.125 16.632812 0.671875 13.808594 Z M 10.355469 0.703125 L 8.148438 0.125 C 6.167969 -0.402344 4.128906 0.777344 3.601562 2.761719 L 3.050781 4.84375 C 4.871094 2.582031 7.484375 1.101562 10.359375 0.703125 Z M 10.355469 0.703125 "/>
</g>
</svg>
